<svg width="94" height="42" viewBox="0 0 94 42" fill="none" xmlns="http://www.w3.org/2000/svg">
<path fill-rule="evenodd" clip-rule="evenodd" d="M20.0857 21L14.7927 26.293L16.2069 27.7072L21.4999 22.4142L26.7929 27.7072L28.2071 26.293L22.9141 21L28.2069 15.7072L26.7927 14.293L21.4999 19.5858L16.2071 14.293L14.7929 15.7072L20.0857 21Z" fill="#424242"/>
<path d="M55.9043 18.5H54.5833C54.5052 18.12 54.3684 17.7862 54.1731 17.4986C53.9814 17.2109 53.747 16.9695 53.47 16.7741C53.1966 16.5753 52.893 16.4261 52.5591 16.3267C52.2253 16.2273 51.8773 16.1776 51.5151 16.1776C50.8546 16.1776 50.2562 16.3445 49.72 16.6783C49.1873 17.0121 48.763 17.5039 48.4469 18.1538C48.1344 18.8036 47.9782 19.6009 47.9782 20.5455C47.9782 21.4901 48.1344 22.2873 48.4469 22.9371C48.763 23.587 49.1873 24.0788 49.72 24.4126C50.2562 24.7464 50.8546 24.9134 51.5151 24.9134C51.8773 24.9134 52.2253 24.8636 52.5591 24.7642C52.893 24.6648 53.1966 24.5174 53.47 24.3221C53.747 24.1232 53.9814 23.88 54.1731 23.5923C54.3684 23.3011 54.5052 22.9673 54.5833 22.5909H55.9043C55.8049 23.1484 55.6238 23.6474 55.361 24.0877C55.0982 24.5281 54.7715 24.9027 54.3809 25.2116C53.9903 25.517 53.5517 25.7496 53.0652 25.9094C52.5822 26.0692 52.0655 26.1491 51.5151 26.1491C50.5847 26.1491 49.7573 25.9219 49.0329 25.4673C48.3084 25.0128 47.7385 24.3665 47.323 23.5284C46.9075 22.6903 46.6998 21.696 46.6998 20.5455C46.6998 19.3949 46.9075 18.4006 47.323 17.5625C47.7385 16.7244 48.3084 16.0781 49.0329 15.6236C49.7573 15.169 50.5847 14.9418 51.5151 14.9418C52.0655 14.9418 52.5822 15.0217 53.0652 15.1815C53.5517 15.3413 53.9903 15.5756 54.3809 15.8846C54.7715 16.19 55.0982 16.5629 55.361 17.0032C55.6238 17.44 55.8049 17.9389 55.9043 18.5ZM58.7256 15.0909V26H57.4685V15.0909H58.7256ZM63.952 26.1705C63.2133 26.1705 62.5653 25.9947 62.0077 25.6431C61.4537 25.2915 61.0205 24.7997 60.708 24.1676C60.3991 23.5355 60.2446 22.7969 60.2446 21.9517C60.2446 21.0994 60.3991 20.3555 60.708 19.7198C61.0205 19.0842 61.4537 18.5906 62.0077 18.239C62.5653 17.8874 63.2133 17.7116 63.952 17.7116C64.6906 17.7116 65.3369 17.8874 65.8909 18.239C66.4484 18.5906 66.8817 19.0842 67.1906 19.7198C67.5031 20.3555 67.6594 21.0994 67.6594 21.9517C67.6594 22.7969 67.5031 23.5355 67.1906 24.1676C66.8817 24.7997 66.4484 25.2915 65.8909 25.6431C65.3369 25.9947 64.6906 26.1705 63.952 26.1705ZM63.952 25.0412C64.513 25.0412 64.9747 24.8974 65.3369 24.6097C65.6991 24.3221 65.9672 23.9439 66.1412 23.4751C66.3153 23.0064 66.4023 22.4986 66.4023 21.9517C66.4023 21.4048 66.3153 20.8952 66.1412 20.4229C65.9672 19.9506 65.6991 19.5689 65.3369 19.2777C64.9747 18.9865 64.513 18.8409 63.952 18.8409C63.3909 18.8409 62.9292 18.9865 62.567 19.2777C62.2048 19.5689 61.9367 19.9506 61.7627 20.4229C61.5887 20.8952 61.5017 21.4048 61.5017 21.9517C61.5017 22.4986 61.5887 23.0064 61.7627 23.4751C61.9367 23.9439 62.2048 24.3221 62.567 24.6097C62.9292 24.8974 63.3909 25.0412 63.952 25.0412ZM74.9738 19.6506L73.8445 19.9702C73.7735 19.782 73.6687 19.5991 73.5302 19.4215C73.3953 19.2404 73.2106 19.0913 72.9762 18.9741C72.7419 18.8569 72.4418 18.7983 72.076 18.7983C71.5753 18.7983 71.1581 18.9137 70.8243 19.1445C70.494 19.3718 70.3289 19.6612 70.3289 20.0128C70.3289 20.3253 70.4425 20.5721 70.6698 20.7532C70.8971 20.9343 71.2522 21.0852 71.7351 21.206L72.9496 21.5043C73.6811 21.6818 74.2262 21.9535 74.5849 22.3192C74.9436 22.6815 75.1229 23.1484 75.1229 23.7202C75.1229 24.1889 74.988 24.608 74.7181 24.9773C74.4517 25.3466 74.0789 25.6378 73.5995 25.8509C73.1201 26.0639 72.5625 26.1705 71.9269 26.1705C71.0924 26.1705 70.4017 25.9893 69.8548 25.6271C69.3079 25.2649 68.9617 24.7358 68.8161 24.0398L70.0093 23.7415C70.1229 24.1818 70.3377 24.5121 70.6538 24.7322C70.9734 24.9524 71.3907 25.0625 71.9056 25.0625C72.4915 25.0625 72.9567 24.9382 73.3012 24.6896C73.6492 24.4375 73.8232 24.1357 73.8232 23.7841C73.8232 23.5 73.7238 23.2621 73.5249 23.0703C73.326 22.875 73.0206 22.7294 72.6087 22.6335L71.2451 22.3139C70.4958 22.1364 69.9453 21.8612 69.5938 21.4883C69.2458 21.1119 69.0718 20.6413 69.0718 20.0767C69.0718 19.6151 69.2014 19.2067 69.4606 18.8516C69.7234 18.4964 70.0803 18.2177 70.5313 18.0153C70.9858 17.8129 71.5007 17.7116 72.076 17.7116C72.8857 17.7116 73.5213 17.8892 73.983 18.2443C74.4482 18.5994 74.7784 19.0682 74.9738 19.6506ZM80.0456 26.1705C79.2573 26.1705 78.5772 25.9964 78.0055 25.6484C77.4373 25.2969 76.9987 24.8068 76.6898 24.1783C76.3844 23.5462 76.2317 22.8111 76.2317 21.973C76.2317 21.1349 76.3844 20.3963 76.6898 19.7571C76.9987 19.1143 77.4284 18.6136 77.9789 18.255C78.5328 17.8928 79.1791 17.7116 79.9178 17.7116C80.3439 17.7116 80.7647 17.7827 81.1802 17.9247C81.5957 18.0668 81.9739 18.2976 82.3148 18.6172C82.6557 18.9332 82.9274 19.3523 83.1298 19.8743C83.3322 20.3963 83.4334 21.0391 83.4334 21.8026V22.3352H77.1266V21.2486H82.155C82.155 20.7869 82.0627 20.375 81.878 20.0128C81.6969 19.6506 81.4377 19.3647 81.1003 19.1552C80.7665 18.9457 80.3723 18.8409 79.9178 18.8409C79.4171 18.8409 78.9838 18.9652 78.6181 19.2138C78.2558 19.4588 77.9771 19.7784 77.7818 20.1726C77.5865 20.5668 77.4888 20.9893 77.4888 21.4403V22.1648C77.4888 22.7827 77.5953 23.3065 77.8084 23.7362C78.025 24.1623 78.3251 24.4872 78.7086 24.7109C79.0921 24.9311 79.5378 25.0412 80.0456 25.0412C80.3759 25.0412 80.6742 24.995 80.9405 24.9027C81.2104 24.8068 81.443 24.6648 81.6383 24.4766C81.8336 24.2848 81.9845 24.0469 82.0911 23.7628L83.3056 24.1037C83.1777 24.5156 82.9629 24.8778 82.661 25.1903C82.3592 25.4993 81.9863 25.7408 81.5424 25.9148C81.0985 26.0852 80.5996 26.1705 80.0456 26.1705Z" fill="#424242"/>
</svg>
