<svg width="58" height="55" viewBox="0 0 58 55" fill="none" xmlns="http://www.w3.org/2000/svg">
<path d="M18.125 27.5V13.75C18.125 11.015 19.2708 8.39193 21.3102 6.45796C23.3497 4.52399 26.1158 3.4375 29 3.4375C31.8842 3.4375 34.6503 4.52399 36.6898 6.45796C38.7292 8.39193 39.875 11.015 39.875 13.75V27.5C39.875 30.235 38.7292 32.8581 36.6898 34.792C34.6503 36.726 31.8842 37.8125 29 37.8125C26.1158 37.8125 23.3497 36.726 21.3102 34.792C19.2708 32.8581 18.125 30.235 18.125 27.5ZM47.125 27.5C47.125 27.0442 46.934 26.607 46.5941 26.2847C46.2542 25.9623 45.7932 25.7812 45.3125 25.7812C44.8318 25.7812 44.3708 25.9623 44.0309 26.2847C43.691 26.607 43.5 27.0442 43.5 27.5C43.5 31.1467 41.9723 34.6441 39.253 37.2227C36.5338 39.8013 32.8456 41.25 29 41.25C25.1544 41.25 21.4662 39.8013 18.747 37.2227C16.0277 34.6441 14.5 31.1467 14.5 27.5C14.5 27.0442 14.309 26.607 13.9691 26.2847C13.6292 25.9623 13.1682 25.7812 12.6875 25.7812C12.2068 25.7812 11.7458 25.9623 11.4059 26.2847C11.066 26.607 10.875 27.0442 10.875 27.5C10.8805 31.7594 12.5514 35.8655 15.5645 39.0243C18.5776 42.1832 22.7189 44.1704 27.1875 44.6016V49.8438C27.1875 50.2996 27.3785 50.7368 27.7184 51.0591C28.0583 51.3814 28.5193 51.5625 29 51.5625C29.4807 51.5625 29.9417 51.3814 30.2816 51.0591C30.6215 50.7368 30.8125 50.2996 30.8125 49.8438V44.6016C35.2811 44.1704 39.4224 42.1832 42.4355 39.0243C45.4486 35.8655 47.1195 31.7594 47.125 27.5Z" fill="#FC0000"/>
</svg>
